<?xml version="1.0" encoding="UTF-8"?>
<svg version="1.1" xmlns="http://www.w3.org/2000/svg" width="1024" height="1024">
<path d="M0 0 C337.92 0 675.84 0 1024 0 C1024 337.92 1024 675.84 1024 1024 C686.08 1024 348.16 1024 0 1024 C0 686.08 0 348.16 0 0 Z " fill="#FEFEFE" transform="translate(0,0)"/>
<path d="M0 0 C1.2046138 -0.0038269 2.4092276 -0.00765381 3.65034485 -0.01159668 C6.19455808 -0.01431271 8.73879937 -0.00697333 11.28295898 0.00976562 C15.14566598 0.03108379 19.00649299 0.0099995 22.86914062 -0.015625 C25.35026447 -0.01297985 27.83138716 -0.007851 30.3125 0 C32.02405525 -0.01214539 32.02405525 -0.01214539 33.77018738 -0.02453613 C45.18821115 0.10662063 54.89950207 2.85537793 63.48828125 10.53125 C64.09285156 11.02109375 64.69742187 11.5109375 65.3203125 12.015625 C72.11088349 17.99251102 76.98547198 27.76731067 77.66036987 36.84623718 C77.7277274 44.4848974 76.68818712 51.72656631 75.37109375 59.23828125 C75.03904232 61.19954614 74.70699217 63.16081125 74.37501335 65.12208843 C73.91195045 67.84376837 73.44051777 70.56397354 72.96923828 73.28424072 C72.14882504 78.03101782 71.34279934 82.78026263 70.53512573 87.52922058 C70.10615928 90.04640927 69.67448575 92.56313881 69.23953247 95.07929993 C68.02467764 102.1519077 66.93225591 109.2314288 65.93695068 116.33824158 C65.01637162 122.88964997 63.97929329 129.42280624 62.9387207 135.95605469 C62.67847841 137.59972471 62.42168345 139.24394398 62.16821289 140.88867188 C61.79473337 143.30994844 61.41022985 145.72925628 61.0234375 148.1484375 C60.91395279 148.87255829 60.80446808 149.59667908 60.69166565 150.34274292 C59.53924943 157.40271815 57.70895868 164.3791529 52.48828125 169.53125 C49.56683814 171.5637883 46.51414301 173.32846849 43.42578125 175.09375 C41.60303773 176.16083435 39.78144846 177.22989245 37.9609375 178.30078125 C37.04070801 178.84041504 36.12047852 179.38004883 35.17236328 179.93603516 C31.1852157 182.30569336 27.27249722 184.78578949 23.36328125 187.28125 C15.8852472 192.03956895 8.35536541 196.70796979 0.80078125 201.34375 C-7.93095357 206.70269241 -16.64079466 212.09435598 -25.32421875 217.53125 C-27.29296287 218.76303023 -29.26171262 219.99480147 -31.23046875 221.2265625 C-34.99642671 223.5829642 -34.99642671 223.5829642 -38.76171875 225.94042969 C-40.61390007 227.09893349 -42.46847713 228.25346126 -44.32421875 229.40625 C-45.75701172 230.29957031 -45.75701172 230.29957031 -47.21875 231.2109375 C-52.41266707 234.20164273 -57.67909623 234.52355331 -63.51171875 233.53125 C-67.00862402 231.77216847 -69.89029986 229.46216217 -72.86572266 226.93115234 C-74.72172874 225.35263871 -76.60490694 223.81050542 -78.4921875 222.26953125 C-81.41368601 219.87906276 -84.32342521 217.47522505 -87.2265625 215.0625 C-91.06474497 211.88393795 -94.95741066 208.78357746 -98.88671875 205.71875 C-100.01443347 204.83607873 -101.14204025 203.95326953 -102.26953125 203.0703125 C-102.80739258 202.64911133 -103.34525391 202.22791016 -103.89941406 201.79394531 C-104.69750488 201.16891113 -104.69750488 201.16891113 -105.51171875 200.53125 C-106.32141113 199.89848145 -106.32141113 199.89848145 -107.14746094 199.25292969 C-108.69170213 198.04100544 -110.2269162 196.81760554 -111.76171875 195.59375 C-112.633125 194.90410156 -113.50453125 194.21445312 -114.40234375 193.50390625 C-116.49184017 191.54984016 -117.55748525 190.20736852 -118.51171875 187.53125 C-118.43542033 183.33483689 -117.88286167 181.07636616 -115.51171875 177.59375 C-112.1233565 175.26425095 -110.28761736 174.42663655 -106.20703125 174.67578125 C-100.44904573 176.50331578 -95.96416151 180.98534811 -91.45458984 184.87109375 C-88.78789009 187.14975149 -86.05945584 189.34804274 -83.32958984 191.55029297 C-81.28973863 193.19614222 -79.25725578 194.8506831 -77.2265625 196.5078125 C-72.67968893 200.21335823 -68.09937513 203.87638882 -63.51171875 207.53125 C-62.26455078 208.65853516 -62.26455078 208.65853516 -60.9921875 209.80859375 C-58.74862694 211.77864028 -58.74862694 211.77864028 -56.61279297 211.28271484 C-54.35136593 210.47389862 -52.46903493 209.47382341 -50.4140625 208.23046875 C-49.62265869 207.75424072 -48.83125488 207.2780127 -48.01586914 206.78735352 C-47.16887451 206.26971436 -46.32187988 205.7520752 -45.44921875 205.21875 C-44.56161865 204.68113037 -43.67401855 204.14351074 -42.75952148 203.58959961 C-35.22950434 199.01101295 -27.77801772 194.31168891 -20.33984375 189.5859375 C-15.35818064 186.42520015 -10.3442177 183.31813157 -5.32421875 180.21875 C2.53993929 175.35971559 10.39490525 170.48627244 18.23828125 165.59375 C19.22594482 164.97910889 20.2136084 164.36446777 21.23120117 163.73120117 C22.65009644 162.84525269 22.65009644 162.84525269 24.09765625 161.94140625 C24.92233398 161.42715088 25.74701172 160.91289551 26.59667969 160.38305664 C27.5509082 159.77196045 28.50513672 159.16086426 29.48828125 158.53125 C30.22153625 158.1997847 30.95479126 157.8683194 31.71026611 157.52680969 C35.79795514 155.41727296 38.01364188 153.7595001 39.70318604 149.38737488 C40.60987211 145.2899822 41.25159769 141.22145721 41.81640625 137.06640625 C42.05715724 135.51202977 42.30143316 133.95819566 42.54901123 132.40489197 C43.19324318 128.30332659 43.79043841 124.19625732 44.37756348 120.08618164 C44.96546613 116.02398323 45.59521106 111.96835449 46.22265625 107.91210938 C47.0832996 102.32648939 47.92663093 96.73879286 48.74793243 91.14725304 C49.75034124 84.32893025 50.80348296 77.52413129 51.95898438 70.72998047 C52.07696255 70.02969821 52.19494072 69.32941595 52.31649399 68.60791302 C52.86541496 65.35175008 53.42406982 62.09841645 54.00323486 58.84742737 C56.78596129 44.06679772 56.78596129 44.06679772 53.42578125 29.90625 C50.68464449 26.24879038 47.58742786 24.46480972 43.48828125 22.53125 C42.82828125 22.20125 42.16828125 21.87125 41.48828125 21.53125 C40.00815301 21.41338309 38.52311659 21.35432062 37.03857422 21.32592773 C36.11777069 21.30598251 35.19696716 21.28603729 34.2482605 21.26548767 C33.25238922 21.24877518 32.25651794 21.23206268 31.23046875 21.21484375 C30.21228058 21.19406265 29.19409241 21.17328156 28.14505005 21.15187073 C24.8845307 21.08635534 21.62392919 21.02748098 18.36328125 20.96875 C16.15624142 20.92556668 13.94920997 20.88195245 11.7421875 20.83789062 C6.32430624 20.73067195 0.90634279 20.62890926 -4.51171875 20.53125 C-4.69130127 21.91292358 -4.69130127 21.91292358 -4.87451172 23.32250977 C-6.02236628 32.05587175 -7.27759527 40.76532594 -8.63671875 49.46875 C-8.81847656 50.64115234 -9.00023437 51.81355469 -9.1875 53.02148438 C-9.62749518 55.85829539 -10.06890816 58.69487735 -10.51171875 61.53125 C-9.49851562 61.49644531 -8.4853125 61.46164062 -7.44140625 61.42578125 C-6.08986045 61.39762405 -4.73829656 61.37032597 -3.38671875 61.34375 C-2.7215625 61.31861328 -2.05640625 61.29347656 -1.37109375 61.26757812 C4.09151876 61.18724559 8.09667961 62.29870975 12.1328125 66.06640625 C17.41144499 72.96923336 17.20616724 78.28004481 16.21820068 86.88305664 C15.47446602 92.3956461 14.58188429 97.88299974 13.66235352 103.36865234 C13.17486922 106.28670939 12.70658749 109.20740593 12.24023438 112.12890625 C11.93212614 114.00799921 11.62291928 115.88691243 11.3125 117.765625 C11.1748674 118.62726257 11.0372348 119.48890015 10.89543152 120.37664795 C9.55493669 128.24758669 7.96802743 135.28574119 1.48828125 140.53125 C-2.14140143 142.28003912 -5.01377175 142.78014662 -9.0256958 142.77607727 C-10.12181686 142.78001495 -11.21793793 142.78395264 -12.34727478 142.78800964 C-13.54010574 142.78231461 -14.73293671 142.77661957 -15.96191406 142.77075195 C-17.90221816 142.77384381 -19.84252225 142.77694192 -21.78282595 142.78027475 C-23.8638849 142.78209681 -25.9448923 142.77916352 -28.02594757 142.77507973 C-32.3723209 142.76745391 -36.71853027 142.7781443 -41.06488037 142.7922821 C-53.42265452 142.82997352 -65.7803545 142.84822905 -78.13818359 142.83666992 C-84.96721807 142.83043973 -91.79598747 142.84210437 -98.62495685 142.87311524 C-102.93880024 142.89170256 -107.25188889 142.88851569 -111.56571913 142.86894763 C-114.89193361 142.86040511 -118.21777733 142.88453617 -121.54394531 142.90356445 C-122.72867935 142.89179672 -123.91341339 142.88002899 -125.13404846 142.86790466 C-132.36524269 142.94885663 -137.72321832 144.00882916 -143.51171875 148.53125 C-148.95116546 154.35036593 -149.76968806 161.42094282 -150.88027954 169.0821228 C-151.21281105 171.37497069 -151.56710351 173.66360987 -151.92651367 175.95239258 C-152.33312274 178.54391187 -152.73810497 181.13560623 -153.13685608 183.72834778 C-154.29486591 191.24517701 -155.53609602 198.74653559 -156.80078125 206.24609375 C-157.10588875 208.05597527 -157.10588875 208.05597527 -157.41716003 209.90242004 C-157.83875465 212.40259658 -158.26040156 214.90276429 -158.68209839 217.40292358 C-162.22852204 238.47769065 -165.68121724 259.56730709 -169.03378296 280.67373657 C-169.43361212 283.19035121 -169.83466104 285.70677238 -170.23696899 288.22299194 C-170.79361676 291.70922053 -171.34496789 295.19624227 -171.89453125 298.68359375 C-172.05963699 299.71405823 -172.22474274 300.74452271 -172.39485168 301.80621338 C-172.61729805 303.23039581 -172.61729805 303.23039581 -172.84423828 304.68334961 C-172.97396027 305.50387314 -173.10368225 306.32439667 -173.23733521 307.16978455 C-173.52484181 309.64419286 -173.55897692 312.04245231 -173.51171875 314.53125 C-169.94887719 312.36514461 -166.3864501 310.19835875 -162.82421875 308.03125 C-161.25184448 307.07472534 -161.25184448 307.07472534 -159.64770508 306.09887695 C-152.99803692 302.05131988 -146.35970494 297.98660736 -139.7421875 293.88671875 C-136.16504887 291.71287093 -134.20700798 291.40512045 -130.01010132 291.39994812 C-128.8409317 291.39593994 -127.67176208 291.39193176 -126.46716309 291.38780212 C-125.1778186 291.38833084 -123.88847412 291.38885956 -122.56005859 291.3894043 C-121.19344978 291.38637332 -119.82684198 291.38285204 -118.4602356 291.37887573 C-115.51260643 291.37097953 -112.5649894 291.36583901 -109.61735153 291.36258507 C-104.95227096 291.35667708 -100.28726679 291.34013717 -95.6222229 291.32124329 C-94.02502255 291.31490552 -92.42782216 291.3085799 -90.83062172 291.30226612 C-90.03060085 291.29910031 -89.23057997 291.2959345 -88.40631604 291.29267275 C-77.54416583 291.25060952 -66.68205041 291.21763987 -55.81982422 291.20532227 C-48.49568852 291.19693141 -41.17174122 291.17440004 -33.84769976 291.1359666 C-29.9730098 291.11623469 -26.09860128 291.10379161 -22.22385788 291.10880089 C-18.5744239 291.11346109 -14.92552226 291.09956804 -11.27619553 291.07178879 C-9.30730263 291.06162794 -7.33833862 291.07110703 -5.3694458 291.08128357 C1.72025353 291.00675971 6.48448359 290.40514474 12.48828125 286.53125 C16.53149306 282.27523757 18.55428319 278.28053855 19.40209961 272.5065918 C19.62759743 271.00934822 19.62759743 271.00934822 19.85765076 269.4818573 C20.01290726 268.40889908 20.16816376 267.33594086 20.328125 266.23046875 C20.67241071 263.95115445 21.01681547 261.67185813 21.36132812 259.39257812 C21.89519956 255.80520753 22.42597872 252.2174077 22.95385742 248.62915039 C23.46645341 245.1616735 23.99052337 241.6960705 24.515625 238.23046875 C24.7454734 236.63014046 24.7454734 236.63014046 24.97996521 234.9974823 C25.9474297 228.64610222 27.01768955 222.93005836 30.87109375 217.62890625 C33.77104888 215.66057922 36.63490395 215.94425778 40.03515625 216.05859375 C42.70082876 216.57220263 43.76348027 217.08045414 45.61328125 219.03125 C49.37090721 226.04548513 47.07946793 234.17750021 45.80078125 241.71875 C45.62144043 242.79012207 45.44209961 243.86149414 45.25732422 244.96533203 C44.8706701 247.27100985 44.48192848 249.57633839 44.09130859 251.88134766 C43.46704247 255.65980052 42.89057101 259.44351395 42.3203125 263.23046875 C41.91854885 265.78915365 41.51621674 268.34774937 41.11328125 270.90625 C40.94094971 272.09887451 40.76861816 273.29149902 40.59106445 274.52026367 C38.41210153 287.94037266 32.57162825 297.72972731 21.70703125 305.78515625 C12.30579645 310.88509794 3.46395759 312.09225236 -7.10107422 311.85498047 C-9.10089602 311.83632725 -11.1007181 311.81769453 -13.10054708 311.79982686 C-15.22715192 311.7774612 -17.3534378 311.74553181 -19.4798851 311.71145248 C-23.94790487 311.64256547 -28.4155857 311.61619527 -32.88406372 311.59793091 C-45.58297723 311.54137978 -58.28085465 311.45983983 -70.97851562 311.26757812 C-78.00999986 311.16146006 -85.03999552 311.1070236 -92.07230103 311.10765946 C-95.77683426 311.10583402 -99.47710202 311.07935205 -103.18059921 310.98809433 C-122.02818172 310.54020636 -135.20381789 312.86148031 -150.34629631 324.85980225 C-153.45599049 327.26011512 -156.73212811 329.24098763 -160.1015625 331.2578125 C-161.17212891 331.91652344 -162.24269531 332.57523438 -163.34570312 333.25390625 C-164.36986328 333.88167969 -165.39402344 334.50945312 -166.44921875 335.15625 C-167.53138672 335.82269531 -168.61355469 336.48914063 -169.72851562 337.17578125 C-172.65038978 338.97082595 -175.57826289 340.75521026 -178.51171875 342.53125 C-179.58969727 343.18806763 -179.58969727 343.18806763 -180.68945312 343.8581543 C-184.8863299 346.3515733 -187.58751411 347.35195077 -192.51171875 346.53125 C-195.14188036 344.3585078 -196.98508769 342.58451212 -198.51171875 339.53125 C-198.75474122 333.66042353 -198.14617237 328.21067377 -197.15625 322.43359375 C-197.01273605 321.56400528 -196.86922211 320.69441681 -196.72135925 319.79847717 C-196.2616567 317.02086217 -195.79325007 314.24480334 -195.32421875 311.46875 C-195.02869004 309.6960646 -194.7337646 307.92327852 -194.43945312 306.15039062 C-193.97896958 303.37745364 -193.5180624 300.60459368 -193.05523682 297.83204651 C-189.5400515 276.75212461 -186.20332736 255.6426123 -182.87231445 234.53295898 C-182.02694159 229.17879016 -181.17635663 223.82548777 -180.32104492 218.47290039 C-180.2116669 217.7881536 -180.10228888 217.10340681 -179.98959637 216.39791012 C-179.07262035 210.65733735 -179.07262035 210.65733735 -178.67318535 208.15902519 C-177.42107675 200.3233261 -176.19234675 192.48476577 -175.01220703 184.63786316 C-174.43087227 180.78979696 -173.83216695 176.94456594 -173.22967529 173.09976196 C-172.96459727 171.37966775 -172.70761872 169.65830071 -172.45977783 167.93563843 C-170.2979454 152.9398712 -166.1226316 139.18455462 -153.51171875 129.53125 C-150.28243237 127.5507511 -147.03225058 125.92491045 -143.51171875 124.53125 C-142.72554169 124.18587189 -141.93936462 123.84049377 -141.12936401 123.48464966 C-135.81073292 122.08296964 -130.64960624 122.27042105 -125.17236328 122.30419922 C-123.31299385 122.30376114 -123.31299385 122.30376114 -121.4160614 122.30331421 C-118.03006454 122.30446605 -114.64431372 122.31447334 -111.25836039 122.32846212 C-107.71496212 122.34099305 -104.17156032 122.34214184 -100.62814331 122.34451294 C-93.92406909 122.35072078 -87.22006036 122.36712214 -80.51601493 122.38721192 C-72.88120562 122.40959261 -65.24639312 122.4205698 -57.61155915 122.43060279 C-41.91157447 122.45148902 -26.21165507 122.48665141 -10.51171875 122.53125 C-10.41340051 121.40981236 -10.41340051 121.40981236 -10.31309605 120.26571941 C-10.22544955 119.2808999 -10.13780306 118.29608038 -10.04750061 117.28141785 C-9.91824487 115.81966771 -9.91824487 115.81966771 -9.78637791 114.32838726 C-9.44113378 110.81241047 -8.91352388 107.37774676 -8.3203125 103.89453125 C-8.21074722 103.24421432 -8.10118195 102.5938974 -7.98829651 101.9238739 C-7.6458243 99.89648307 -7.29765695 97.870123 -6.94921875 95.84375 C-6.71250793 94.44863259 -6.47617734 93.0534506 -6.24023438 91.65820312 C-5.66843316 88.28179824 -5.0915292 84.9062899 -4.51171875 81.53125 C-5.59710938 81.57765625 -6.6825 81.6240625 -7.80078125 81.671875 C-9.24606606 81.70941487 -10.69138086 81.74581264 -12.13671875 81.78125 C-12.84957031 81.81476563 -13.56242188 81.84828125 -14.296875 81.8828125 C-19.52376664 81.97871877 -22.34031494 80.93685878 -26.51171875 77.53125 C-30.79436132 72.89172055 -32.71075842 69.01445964 -32.6343689 62.67062378 C-32.38288047 58.28393724 -31.63579109 53.96280489 -30.9375 49.62890625 C-30.77179001 48.59237411 -30.60608002 47.55584198 -30.43534851 46.48789978 C-30.08291301 44.30301758 -29.72720038 42.11866178 -29.3684082 39.93481445 C-28.82697865 36.61069445 -28.31078932 33.28324728 -27.79492188 29.95507812 C-27.44817114 27.82526683 -27.0999132 25.69570026 -26.75 23.56640625 C-26.52622429 22.08636864 -26.52622429 22.08636864 -26.29792786 20.57643127 C-24.96136736 12.73215674 -22.74382231 7.16213491 -16.48120117 2.06445312 C-11.32275496 -0.46043357 -5.61510929 -0.03949511 0 0 Z " fill="#449852" transform="translate(318.51171875,339.46875)"/>
<path d="M0 0 C80.71011673 0 80.71011673 0 101.16015625 19.0078125 C108.97940677 27.4972845 113.09531403 36.93578707 116 48 C116.53947266 49.85431641 116.53947266 49.85431641 117.08984375 51.74609375 C121.69910777 70.46871896 117.94129968 92.85916107 108.12792969 109.25634766 C98.66737807 123.88129563 84.25640452 131.23802292 68 136 C45.58722036 139.44811994 22.67646847 138 0 138 C0 92.46 0 46.92 0 0 Z " fill="#030303" transform="translate(472,504)"/>
<path d="M0 0 C11.63913251 8.526837 16.85386247 20.47536465 19.52734375 34.3359375 C20.37478419 40.02423633 20.125 45.41436626 20.125 51.25 C-4.295 51.25 -28.715 51.25 -53.875 51.25 C-52.09794123 61.91235259 -50.78204278 67.46877883 -43.4375 74.625 C-35.64987658 79.5634929 -29.09164809 80.20132994 -19.875 79.25 C-16.32960941 78.26285203 -13.14377171 76.92723492 -9.875 75.25 C-9.14796875 74.91613281 -8.4209375 74.58226562 -7.671875 74.23828125 C-5.33972249 72.95559737 -4.89915742 71.66408534 -3.875 69.25 C-2.885 67.765 -2.885 67.765 -1.875 66.25 C2.53458108 66.91607439 6.39072186 68.51624729 10.4375 70.3125 C11.08267578 70.59416016 11.72785156 70.87582031 12.39257812 71.16601562 C13.97198358 71.8562743 15.54876493 72.55253198 17.125 73.25 C15.71873092 80.52380558 10.13467408 85.83100557 4.25390625 89.9375 C-9.74817144 98.56997359 -27.77035261 99.32330883 -43.68359375 96.59765625 C-50.60678225 94.49999315 -56.29971289 90.79570447 -61.875 86.25 C-62.83019531 85.49976563 -62.83019531 85.49976563 -63.8046875 84.734375 C-71.58302199 77.88944065 -77.30186624 65.67172757 -78.09204102 55.43945312 C-78.21625704 52.12362499 -78.24622087 48.81807689 -78.25 45.5 C-78.27449219 44.38367188 -78.29898438 43.26734375 -78.32421875 42.1171875 C-78.37217768 28.40093259 -73.0887231 16.66511661 -63.875 6.5625 C-47.24770026 -9.33207128 -19.51011572 -11.96097547 0 0 Z " fill="#030303" transform="translate(681.875,545.75)"/>
<path d="M0 0 C7.92 0 15.84 0 24 0 C24.33 28.71 24.66 57.42 25 87 C29.455 81.555 29.455 81.555 34 76 C35.84734115 73.80673281 37.70027858 71.61814707 39.5625 69.4375 C47.52106682 60.6680708 47.52106682 60.6680708 54.07617188 50.94580078 C55.5278859 48.45596803 56.7358246 46.80095786 59 45 C63.65763646 44.00746322 68.14000084 44.24352088 72.875 44.5 C74.13570312 44.53609375 75.39640625 44.5721875 76.6953125 44.609375 C79.79999216 44.7034562 82.89842636 44.83478608 86 45 C82.73319159 49.44849305 79.45080353 53.76570844 75.6875 57.8125 C72.52623398 61.26980431 69.50293164 64.79053355 66.5625 68.4375 C62.6368686 73.29288621 58.50548755 77.91356416 54.26171875 82.4921875 C53.51535156 83.31976562 52.76898437 84.14734375 52 85 C50.83404297 86.27230469 50.83404297 86.27230469 49.64453125 87.5703125 C47.75871763 89.78393483 47.75871763 89.78393483 48.23535156 91.93725586 C49.07038057 94.18986124 50.04813344 95.59737891 51.58984375 97.43359375 C52.12174316 98.07570801 52.65364258 98.71782227 53.20166016 99.37939453 C53.7744873 100.05856934 54.34731445 100.73774414 54.9375 101.4375 C56.13286705 102.88038759 57.32686295 104.32441213 58.51953125 105.76953125 C59.40825928 106.84388428 59.40825928 106.84388428 60.31494141 107.93994141 C63.47975608 111.8090672 66.48976707 115.79319661 69.5234375 119.765625 C72.24012151 123.32209108 74.98933579 126.8525961 77.75 130.375 C78.21269287 130.96587402 78.67538574 131.55674805 79.15209961 132.16552734 C81.59055184 135.26324686 84.0803309 138.29316351 86.6875 141.25 C89 144 89 144 89 146 C65.38204049 148.51976589 65.38204049 148.51976589 58.68945312 144.67138672 C54.95031381 141.12407621 52.61178873 136.74153719 50.2421875 132.21044922 C48.23538926 128.63938961 45.63065993 125.62359429 43 122.5 C38.65300266 117.13592596 34.41630517 111.69297469 30.25 106.1875 C29.7240625 105.49914062 29.198125 104.81078125 28.65625 104.1015625 C25 99.23639113 25 99.23639113 25 97 C24.34 97 23.68 97 23 97 C23 112.84 23 128.68 23 145 C15.41 145 7.82 145 0 145 C0 97.15 0 49.3 0 0 Z " fill="#020202" transform="translate(816,496)"/>
<path d="M0 0 C39.39821883 0 39.39821883 0 50.36328125 9.34765625 C61.18531149 20.27299943 63.17675516 32.54712451 63.1875 47.375 C63.19974609 48.25671875 63.21199219 49.1384375 63.22460938 50.046875 C63.25473963 63.74609689 60.10260999 75.727677 50.50390625 85.80078125 C46.70274058 89.13940258 42.68653883 91.17032388 38 93 C36.948125 93.4125 35.89625 93.825 34.8125 94.25 C23.2485452 97.33372128 12.2365803 96 0 96 C0 64.32 0 32.64 0 0 Z " fill="#FDFDFD" transform="translate(499,525)"/>
<path d="M0 0 C1.19689453 0.01015137 1.19689453 0.01015137 2.41796875 0.02050781 C7.88096203 0.11662431 12.91964747 0.48771822 18.125 2.25 C18.91777344 2.48332031 19.71054687 2.71664062 20.52734375 2.95703125 C28.60231255 5.68186664 35.03849413 10.91062071 39.97265625 17.84765625 C41.125 20.25 41.125 20.25 40.125 23.25 C37.83156219 24.4553746 35.64038593 25.47132604 33.25 26.4375 C32.61191406 26.71013672 31.97382812 26.98277344 31.31640625 27.26367188 C28.42784243 28.4667376 26.2834173 29.25 23.125 29.25 C20.125 25.91666667 20.125 25.91666667 20.125 23.25 C18.4619416 22.57438252 16.79405395 21.91066719 15.125 21.25 C13.92875 20.71375 12.7325 20.1775 11.5 19.625 C5.28505638 17.3179376 -1.15409249 17.27824732 -7.375 19.5 C-9.94178578 21.29675004 -11.44282351 22.46521239 -12.875 25.25 C-13.2928728 29.26157884 -12.96414827 31.82131109 -10.875 35.25 C-2.91618125 40.27611463 6.33137367 41.5606735 15.41601562 43.51757812 C26.10989325 45.94019322 34.7768067 48.91083101 41.125 58.25 C45.48689188 65.37442341 45.35134588 74.13676124 43.43359375 82.1328125 C39.89155048 91.82526563 34.5616392 96.48431402 25.41796875 100.98828125 C17.71882849 103.9382484 10.38785737 104.5909537 2.1875 104.5625 C1.26259766 104.57861328 0.33769531 104.59472656 -0.61523438 104.61132812 C-11.9729334 104.61928727 -23.59135703 101.09446363 -32.0546875 93.22265625 C-38.81430739 85.69171044 -38.81430739 85.69171044 -38.92578125 81.20703125 C-37.23421092 78.05656011 -34.23243787 77.20866101 -31.0625 75.9375 C-30.11793945 75.52274414 -30.11793945 75.52274414 -29.15429688 75.09960938 C-26.55465865 74.0166541 -24.40307287 73.22140722 -21.56640625 73.375 C-19.45665499 74.46641867 -18.80114722 75.51301958 -17.625 77.5625 C-14.25579709 82.65815782 -9.49874529 84.37541824 -3.875 86.25 C4.39341383 86.89088087 11.17036422 87.06474785 18.125 82.25 C20.21859217 78.79970501 20.45407098 76.28111945 20.125 72.25 C19.57025427 69.48690643 19.57025427 69.48690643 18.125 67.25 C10.4042315 63.69491855 1.92594958 61.60305095 -6.35302734 59.79736328 C-17.68043151 57.3115926 -27.12149215 54.38026177 -33.875 44.25 C-37.32002657 37.4408703 -36.83768405 28.61378337 -35.22265625 21.29296875 C-32.10562728 12.58401655 -26.22083521 7.63307783 -18.28125 3.29296875 C-12.13624101 0.62946648 -6.59520149 -0.08063273 0 0 Z " fill="#020202" transform="translate(752.875,538.75)"/>
<path d="M0 0 C7.54104523 4.50777564 12.63603812 10.35248822 15.58984375 18.6640625 C17.75733638 27.97530304 17.03785385 37.17718863 12.25 45.5 C8.44528987 51.39787892 3.54524358 54.57681733 -2.75 57.5 C-3.48605469 57.86738281 -4.22210937 58.23476563 -4.98046875 58.61328125 C-12.51997461 61.0271992 -23.56306531 60.95370935 -30.875 57.875 C-32.8671875 56.7578125 -32.8671875 56.7578125 -34.75 55.5 C-35.45382812 55.06429687 -36.15765625 54.62859375 -36.8828125 54.1796875 C-43.02676503 50.03081919 -46.27077577 45.09240169 -49.0625 38.3125 C-50.71466273 29.15050669 -50.90722893 20.51728509 -45.75 12.5 C-41.65960349 6.79415575 -37.01879114 2.67127081 -30.75 -0.5 C-30.03199219 -0.86351562 -29.31398438 -1.22703125 -28.57421875 -1.6015625 C-19.7966466 -4.39387453 -8.29247566 -3.86771995 0 0 Z " fill="#050505" transform="translate(732.75,408.5)"/>
<path d="M0 0 C6.44132623 4.8104809 11.45445623 10.93196772 13.453125 18.83203125 C14.65652555 29.30285665 13.33233024 39.20141026 6.765625 47.70703125 C3.26665899 51.41025162 -0.96183202 53.70297651 -5.546875 55.83203125 C-6.28679688 56.19683594 -7.02671875 56.56164062 -7.7890625 56.9375 C-16.42989314 59.74026235 -27.25906739 59.06370993 -35.359375 55.14453125 C-44.17943425 49.93267806 -49.75512016 42.68311329 -52.546875 32.83203125 C-53.84202803 23.24291747 -52.06819592 15.77319036 -46.546875 7.83203125 C-43.81196025 4.70275614 -40.94538846 2.21614862 -37.546875 -0.16796875 C-36.60134766 -0.84859375 -36.60134766 -0.84859375 -35.63671875 -1.54296875 C-25.446114 -7.37774841 -9.71101004 -5.79134258 0 0 Z " fill="#040404" transform="translate(593.546875,410.16796875)"/>
<path d="M0 0 C19.8 0 39.6 0 60 0 C60 7.87472016 60 7.87472016 57.95898438 10.81030273 C57.50959 11.47385773 57.06019562 12.13741272 56.59718323 12.82107544 C56.10105026 13.51820648 55.6049173 14.21533752 55.09375 14.93359375 C54.58146347 15.68099823 54.06917694 16.42840271 53.54136658 17.19845581 C51.87559899 19.62199177 50.18805177 22.02944681 48.5 24.4375 C47.35384278 26.09737379 46.20939903 27.75843201 45.06665039 29.4206543 C42.78786634 32.73308232 40.5022228 36.0405968 38.21142578 39.34472656 C33.87382176 45.61478003 29.64890134 51.95717079 25.4375 58.3125 C22.2509375 63.1078125 22.2509375 63.1078125 19 68 C38.8 68.495 38.8 68.495 59 69 C59 73.29 59 77.58 59 82 C38.21 82 17.42 82 -4 82 C-4 73.03338633 -4 73.03338633 0.1875 67.6875 C1.11831 66.46277644 2.04656605 65.23610888 2.97265625 64.0078125 C3.46781738 63.35973633 3.96297852 62.71166016 4.47314453 62.04394531 C7.1451102 58.46708305 9.62421432 54.76005168 12.125 51.0625 C17.89776497 42.58064018 23.74704629 34.15347932 29.61962891 25.74047852 C30.26206543 24.81936279 30.90450195 23.89824707 31.56640625 22.94921875 C32.13302979 22.13799561 32.69965332 21.32677246 33.28344727 20.4909668 C35.21951411 17.68145322 37.10736477 14.83895284 39 12 C26.13 12 13.26 12 0 12 C0 8.04 0 4.08 0 0 Z " fill="#040404" transform="translate(477,385)"/>
<path d="M0 0 C4.95 0 9.9 0 15 0 C15.33 11.55 15.66 23.1 16 35 C17.65 33.35 19.3 31.7 21 30 C27.6500073 25.83691324 34.39339619 26.2817799 42 27 C47.52356978 28.40599958 50.79113279 31.30327916 53.9921875 35.92578125 C57.07126491 42.2629522 57.27427409 48.17138296 57.1953125 55.08984375 C57.1924826 56.03436905 57.18965271 56.97889435 57.18673706 57.95204163 C57.17560684 60.94732724 57.1505156 63.94230586 57.125 66.9375 C57.11496095 68.9772092 57.10583672 71.01692312 57.09765625 73.05664062 C57.07569096 78.0378774 57.04121076 83.01888678 57 88 C52.05 88 47.1 88 42 88 C41.9906543 86.75387939 41.98130859 85.50775879 41.97167969 84.22387695 C41.93175135 79.59233092 41.86598437 74.96144713 41.79248047 70.33032227 C41.76428739 68.32747924 41.74306458 66.3245253 41.72900391 64.3215332 C41.70755146 61.43903893 41.66088944 58.55787591 41.609375 55.67578125 C41.60814636 54.78288895 41.60691772 53.88999664 41.60565186 52.970047 C41.48235424 47.71456487 40.98465508 44.80383327 37 41 C33.43955816 38.32966862 29.27324202 38.47304915 25 39 C21.59796152 40.2195987 19.6377048 41.21174319 17.36401367 44.0222168 C15.45524974 48.18924627 15.52154861 51.92231476 15.48828125 56.45703125 C15.47033005 57.35999435 15.45237885 58.26295746 15.43388367 59.19328308 C15.37986979 62.06630844 15.34591363 64.93916851 15.3125 67.8125 C15.27931904 69.76499691 15.24482866 71.71747204 15.20898438 73.66992188 C15.1241484 78.44649516 15.05729464 83.22302018 15 88 C10.05 88 5.1 88 0 88 C0 58.96 0 29.92 0 0 Z " fill="#080808" transform="translate(617,379)"/>
<path d="M0 0 C4.47870656 2.15937638 7.18198188 4.92952939 10 9 C12.21572798 15.64718395 12.33462643 25.25329533 9.3125 31.6875 C6.74655343 35.8730866 3.67265886 38.44244705 -1 40 C-5.96860315 40.52166057 -9.85518979 40.5724051 -14.375 38.3125 C-19.5146311 33.78472974 -22.54563994 29.67114022 -23.22265625 22.7109375 C-23.45117642 16.29250133 -23.00420085 9.35669375 -18.53515625 4.36328125 C-12.65752417 -0.65210651 -7.50206072 -0.70700049 0 0 Z " fill="#FBFBFB" transform="translate(722,417)"/>
<path d="M0 0 C1.03769531 -0.02578125 2.07539062 -0.0515625 3.14453125 -0.078125 C7.83981816 0.42817038 10.98431363 2.57272317 13.9375 6.1875 C18.49078609 12.38502828 17.78674526 19.80937134 17.1875 27.25 C15.66376004 32.6659018 12.95837369 36.19174763 8.1875 39.25 C3.83700335 40.70016555 -0.26584185 40.76070107 -4.8125 40.25 C-10.14594474 37.58327763 -13.50633676 33.9929428 -16.0625 28.625 C-17.75638486 21.00251814 -17.56648427 14.16940287 -14.02734375 7.12890625 C-10.44247015 1.58445544 -6.25698967 0.09258184 0 0 Z " fill="#FBFBFB" transform="translate(573.8125,416.75)"/>
<path d="M0 0 C6.00564127 3.72088644 9.62243698 8.88083117 11.9921875 15.4453125 C12.4375 17.4375 12.4375 17.4375 12.4375 22.4375 C-4.0625 22.4375 -20.5625 22.4375 -37.5625 22.4375 C-36.25938595 13.31570164 -33.51452596 7.51335168 -26.40625 1.62890625 C-19.22608868 -3.01081664 -7.83315103 -3.53706238 0 0 Z " fill="#FAFAFA" transform="translate(665.5625,558.5625)"/>
</svg>
